<svg id="Layer_1" data-name="Layer 1" xmlns="http://www.w3.org/2000/svg" viewBox="0 0 1827.51652 1499.06811"><defs><style>.cls-1{fill:#209fda;}.cls-2{fill:#4f4a3f;}.cls-3{fill:#fff;}.cls-10,.cls-3{stroke:#231f20;stroke-miterlimit:10;stroke-width:9px;}.cls-4{fill:#231f20;}.cls-5{fill:#1d9bd7;}.cls-6{fill:#2d9448;}.cls-7{fill:#2c2a29;}.cls-8{fill:#f9cb15;}.cls-9{fill:#e10a7f;}.cls-10{fill:none;}</style></defs><path class="cls-1" d="M815.34247,1183.33469a70.3102,70.3102,0,0,1-9.07036,15.43771c-2.05476-2.21936-.00711-4.30511.38822-6.32569,2.06893-10.57221,6.03418-20.71828,7.14666-31.51511q.06918-9.14641.13845-18.29612c1.70719,10.97784.60345,22.04745,1.0464,33.068.10236,2.54433.233,5.08757.35063,7.63117" transform="translate(-71.30606 -219.43548)"/><path class="cls-2" d="M1303.52468,1085.52552c-.63882-2.49658,1.06226-3.92259,2.50286-5.46837q.66223.69409,1.32366,1.38938a8.22879,8.22879,0,0,1-3.82652,4.079" transform="translate(-71.30606 -219.43548)"/><path class="cls-3" d="M1586.962,764.694c9.55975-45.77457,17.79028-100.66093,6.34534-160.6746-21.89-114.77644-89.6841-203.12758-196.05364-255.50132-47.75036-23.51111-97.5311-35.43237-147.9585-35.43237a331.06139,331.06139,0,0,0-73.66307,8.42576,294.94,294.94,0,0,0-89.7417,36.6256,289.53575,289.53575,0,0,0-53.15283-38.63183l-30.67008-15.06384a285.89431,285.89431,0,0,0-110.67712-22.51164,280.74,280.74,0,0,0-49.53557,4.40874c-46.56268,8.37089-87.02492,26.35585-120.26094,53.45342a238.93375,238.93375,0,0,0-41.071,43.12861c-72.32729-75.80319-158.76325-114.25747-256.989-114.25747a385.18772,385.18772,0,0,0-42.12951,2.35658c-94.60479,10.45422-176.07768,54.25583-235.61,126.66943C89.48094,466.18657,66.46638,548.61946,79.23954,636.07631,86.37517,684.932,103.194,733.2154,130.65792,783.68445,162.993,843.10369,206.6352,900.3819,268.00087,963.941c21.51719,22.28625,43.77956,42.44642,65.30814,61.94325,10.58738,9.58819,20.58671,18.64374,30.45316,27.89224a1484.6508,1484.6508,0,0,1,105.22388,109.51906,247.68635,247.68635,0,0,0-49.96457,14.74494c-43.45007,17.80455-82.52577,47.55773-119.45943,90.96155-58.34257,68.56593-85.89576,144.88868-81.89433,226.84854,3.777,77.35221,44.32641,138.86872,114.17526,173.21877,28.64617,14.08725,60.11438,21.23054,93.53095,21.23054,20.31319,0,41.22082-2.55426,63.919-7.8089a274.02519,274.02519,0,0,0,58.64553-21.02821,163.87559,163.87559,0,0,0,61.023,29.82173,189.77921,189.77921,0,0,0,47.11628,5.88889,208.87473,208.87473,0,0,0,36.91462-3.3688,220.10977,220.10977,0,0,0,66.53691-23.44768,162.17831,162.17831,0,0,0,81.84412,31.83278,210.0926,210.0926,0,0,0,21.39751,1.09663c29.49024-.00091,59.31953-6.31043,88.65984-18.75384,32.77283-13.89932,59.72785-33.07578,81.18415-51.72827q2.45551.71228,4.91194,1.33888c26.74612,35.4011,63.27338,59.88179,107.49553,71.67936a241.19753,241.19753,0,0,0,62.14148,8.18113c35.25873,0,71.0244-7.80781,106.30009-23.20533,53.34533-23.28316,95.73013-58.33583,133.58943-92.74849a89.42148,89.42148,0,0,0,29.66323-67.07238q-.02721-16.08744-.01331-32.17179l.001-36.571-38.66847-56.039a104.178,104.178,0,0,0,16.44283-44.8924c5.12366-42.65363-5.341-82.10624-30.26131-114.09187-17.24324-22.13039-46.8392-48.45762-94.12856-58.8027,8.61533-9.701,17.0594-19.969,25.09826-30.87123,3.82562-5.1892,6.79668-9.86554,9.1837-13.62371.62551-.98488,1.39658-2.197,1.98189-3.09091,1.72351-1.61969,3.6272-3.51236,5.68273-5.81279q9.28-10.38533,17.84369-20.241l5.80706-6.40541-.06125-.23952c23.538-27.36115,43.29531-52.12173,60.98078-76.37857C1508.291,960.8552,1564.19806,873.69083,1586.962,764.694" transform="translate(-71.30606 -219.43548)"/><path class="cls-4" d="M1207.16406,1716.50391a243.67821,243.67821,0,0,1-62.78613-8.26661c-44.5918-11.89648-81.03027-36.08007-108.31836-71.89062-.94434-.24707-1.89062-.50293-2.83008-.7666-25.67773,22.15625-52.86279,39.39551-80.82275,51.2539-29.65039,12.5752-59.80811,18.95118-89.63574,18.95215a212.61453,212.61453,0,0,1-21.65332-1.10937,163.75048,163.75048,0,0,1-81.80664-31.36328,220.91627,220.91627,0,0,1-65.87549,22.95117,211.45785,211.45785,0,0,1-37.35743,3.40918,192.28961,192.28961,0,0,1-47.73779-5.96778,166.43657,166.43657,0,0,1-60.71-29.31445,273.80384,273.80384,0,0,1-57.77344,20.53516c-22.8833,5.29785-43.97607,7.873-64.48291,7.873-33.80078,0-65.64062-7.22949-94.63427-21.4873-70.70215-34.76953-111.74561-97.03906-115.56934-175.33984-4.0332-82.61621,23.71973-159.52539,82.48779-228.59082,37.19825-43.71485,76.58643-73.69532,120.41553-91.65528a253.08911,253.08911,0,0,1,46.166-14.07324c-32.83252-37.585-67.19678-73.251-102.1875-106.05273-9.84082-9.22461-19.82227-18.26368-30.38916-27.835-21.59034-19.55175-43.88233-39.73876-65.46094-62.08837-61.52588-63.7251-105.294-121.17481-137.74024-180.79786C100.85449,734.147,83.94482,685.59082,76.76611,636.4375c-12.87793-88.17236,10.32373-171.2793,67.09717-240.33643,59.95508-72.92724,142.00049-117.03906,237.2666-127.5664a387.75106,387.75106,0,0,1,42.40381-2.37158c97.97315,0,184.34229,37.98339,256.75488,112.9038a241.97785,241.97785,0,0,1,39.72559-41.2124c33.56934-27.36963,74.41357-45.52978,121.39844-53.97656a283.25764,283.25764,0,0,1,49.97754-4.44824,286.75658,286.75658,0,0,1,111.646,22.707l.13379.06055,30.79883,15.13281a292.485,292.485,0,0,1,52.21777,37.69336,298.58021,298.58021,0,0,1,88.8877-35.94873,333.54638,333.54638,0,0,1,74.2207-8.48877c50.81446,0,100.96582,12.00732,149.06348,35.68945,107.09961,52.7334,175.36133,141.69775,197.40527,257.27588,11.52637,60.44385,3.25586,115.63623-6.35449,161.65381-22.86035,109.458-78.94043,196.90625-130.7832,268.01269-17.501,24.00293-37.21875,48.72559-60.25489,75.54688l.07227.28027-6.71191,7.40332c-5.74024,6.60352-11.751,13.42285-17.832,20.22754-1.75781,1.9668-3.59668,3.85449-5.61621,5.7627-.55468.85351-1.2373,1.92675-1.80078,2.81445-2.41894,3.80664-5.41211,8.51855-9.28222,13.76758-6.80274,9.22558-14.34864,18.59375-22.46582,27.89551a163.59841,163.59841,0,0,1,91.45507,58.75781c25.335,32.51953,35.97559,72.60644,30.77149,115.92773a107.29578,107.29578,0,0,1-15.918,44.54981l38.16113,55.30371-.001,37.35058q-.00438,16.08252.01368,32.168a91.885,91.885,0,0,1-30.48145,68.92578c-38.01562,34.55567-80.59375,69.76172-134.27148,93.18946C1278.86914,1708.626,1242.76855,1716.50391,1207.16406,1716.50391Zm-175.16113-86.4795,1.30859.37891c1.5918.46191,3.21875.90527,4.834,1.31836l.84765.2168.52735.69824c26.65722,35.28027,62.37011,59.09082,106.14648,70.76953a238.68827,238.68827,0,0,0,61.49707,8.09766c34.91114,0,70.33985-7.73731,105.29981-22.99707,53.01465-23.13868,95.209-58.03907,132.9082-92.30664a86.94147,86.94147,0,0,0,28.84473-65.21778q-.02784-16.09131-.01368-32.17773l.001-35.791-39.18359-56.78613.92773-1.40723a102.22246,102.22246,0,0,0,16.04785-43.81543c5.04395-41.9834-5.24414-80.80176-29.751-112.25781-16.12012-20.6875-45.28711-47.52637-92.69043-57.89648l-4.16895-.91211,2.834-3.19043c9.07715-10.22071,17.47363-20.54785,24.95605-30.69434,3.7666-5.11035,6.709-9.74121,9.07324-13.46191.64258-1.01172,1.4209-2.23535,2.01172-3.1377l.16309-.249.21679-.20313c1.99805-1.8789,3.80762-3.72949,5.53028-5.6582,6.0664-6.78809,12.06152-13.58887,17.82129-20.21484l4.9375-5.44727-.05078-.19922.85058-.98828c23.31446-27.10156,43.22071-52.0332,60.85547-76.22168,51.53027-70.67676,107.26367-157.56006,129.92969-266.08984l2.44726.51123-2.44726-.51123c9.50976-45.53369,17.69824-100.11524,6.33691-159.69483-21.7373-113.97607-89.06445-201.71386-194.70215-253.727-47.40429-23.34033-96.81347-35.1748-146.85449-35.1748a328.55919,328.55919,0,0,0-73.10547,8.36279,293.46274,293.46274,0,0,0-88.98535,36.31592l-1.61035.99365-1.39355-1.2793a287.36991,287.36991,0,0,0-52.63184-38.26269l-30.53711-14.99854a281.76426,281.76426,0,0,0-109.64111-22.28808,278.27724,278.27724,0,0,0-49.09278,4.36914c-46.14062,8.29541-86.21924,26.10351-119.124,52.93066a237.34284,237.34284,0,0,0-40.6416,42.6792l-1.76758,2.38623-2.0498-2.14844c-71.84913-75.30224-157.70411-113.48339-255.18067-113.48339a382.7303,382.7303,0,0,0-41.855,2.3413c-93.94336,10.38086-174.84326,53.87207-233.95312,125.77247-55.854,67.939-78.68067,149.69775-66.01221,236.438,7.0918,48.55909,23.82031,96.56983,51.14014,146.77491,32.22558,59.2163,75.74072,116.32177,136.94628,179.71484,21.46143,22.229,43.69043,42.35889,65.1875,61.82568,10.61573,9.61524,20.61231,18.66895,30.48438,27.92188a1491.69619,1491.69619,0,0,1,105.40137,109.7041l2.88379,3.32031-4.32764.7793a245.96613,245.96613,0,0,0-49.46,14.59766c-43.07178,17.64941-81.83447,47.17675-118.50342,90.26855-57.9165,68.06543-85.27,143.80273-81.30127,225.10645,3.731,76.40332,43.78418,137.166,112.78125,171.09765,28.30176,13.917,59.39893,20.97363,92.42822,20.97363,20.12256,0,40.84619-2.5332,63.355-7.74414a269.6037,269.6037,0,0,0,58.11231-20.83886l1.40967-.68848,1.23291.96973a161.26661,161.26661,0,0,0,60.09863,29.36425,187.26259,187.26259,0,0,0,46.49512,5.81153,206.46851,206.46851,0,0,0,36.47119-3.3291,216.22779,216.22779,0,0,0,65.7876-23.18555l1.41406-.76758,1.28418.96875a158.7866,158.7866,0,0,0,80.59424,31.3418,207.37015,207.37015,0,0,0,21.14209,1.084c29.15283-.001,58.6538-6.24414,87.68359-18.55566,27.84717-11.81055,54.938-29.07422,80.521-51.3125Z" transform="translate(-71.30606 -219.43548)"/><path class="cls-5" d="M814.93725,1160.66784c-27.90213,5.42944-56.92471,11.17625-84.83951,16.53962-39.25324,7.54176-78.539,14.91628-117.76454,22.59827-4.2415.83063-6.50047-.22266-9.01235-3.5428-55.14247-72.88385-115.682-140.97438-182.37011-203.49009-30.91812-28.98376-63.31558-56.38137-92.794-86.91255C280.56915,856.573,237.02178,804.20281,204.10586,743.71547c-20.47716-37.62935-35.90686-77.14389-42.12541-119.723-9.45973-64.772,7.02252-122.86269,48.40631-173.20068,46.61563-56.70136,107.5384-88.6293,180.20192-96.65895,92.124-10.18007,168.9239,21.93453,231.66583,88.83137,34.1298,36.3899,62.81457,76.78269,84.25633,122.04988,26.67071,56.155,45.50265,114.99627,60.23907,175.2594,11.67758,47.75519,20.58835,96.03873,27.54052,144.67736,5.05266,35.34888,8.98952,70.83493,12.0782,106.42442,2.38752,27.50734,4.34563,55.04157,5.71787,82.603,1.13827,22.85762,3.40025,45.51272,2.85221,68.43095-.04612,6.10062.04493,12.16087-.00146,18.25867" transform="translate(-71.30606 -219.43548)"/><path class="cls-6" d="M1393.08546,1488.27757q0,21.4192.01248,42.83823a6.4343,6.4343,0,0,1-2.29032,5.05905c-33.68279,30.61708-68.63483,59.58552-110.79251,77.98589-36.46081,15.914-74.438,21.27379-113.43773,10.86919-35.62741-9.50472-60.90341-31.925-76.619-65.08918-2.06183-4.35124-3.88777-5.42079-8.94044-4.96143-19.13226,1.73913-36.064-5.07208-51.97654-15.12355-4.41412-2.78832-8.23008-9.12878-12.9652-7.97373-4.14944,1.01227-7.06382,7.00425-10.56852,10.755-25.042,26.801-52.51483,50.40445-86.72524,64.91353-21.9966,9.32887-44.85176,13.9235-68.86744,11.4583-28.41238-2.91677-48.84789-17.79056-63.2793-41.83569-4.63532-7.72342-8.10849-15.9876-11.69832-24.7509-6.92956,6.632-13.43522,13.24222-20.34427,19.39974-22.09453,19.69128-46.87248,34.359-76.43754,39.68983-16.209,2.92235-32.43419,2.87457-48.42308-1.22522-28.88952-7.408-47.25984-26.2761-57.463-53.75633-.81062-2.18337-1.50631-4.40948-2.52046-7.39562-2.30727,1.60843-4.32881,2.95069-6.28017,4.388-28.4133,20.929-58.12939,39.42254-93.03659,47.5038-34.5429,7.99706-69.09273,9.03657-101.68783-6.99266-42.10354-20.70543-65.26931-55.40528-67.55735-102.26189-3.15772-64.66681,20.744-120.02543,62.05973-168.58048,24.39473-28.66928,52.13586-53.29287,87.48009-67.77637,29.48294-12.08175,59.9217-16.1571,90.972-6.82912,33.43917,10.04545,53.168,37.89116,52.364,72.18338-.265,11.30431-4.66686,19.872-15.01545,24.85432q-30.33663,14.60478-61.6535,26.98747c-10.10934,4.01149-13.58123.956-12.20644-10.00088,1.30343-10.39079,3.112-20.71979,4.77249-31.06427,1.54168-9.604,1.808-19.16458-.70763-28.65438-5.19284-19.58957-19.35829-27.3837-38.64249-21.28687-13.46676,4.25772-23.22529,13.50914-31.60283,24.24882-23.15493,29.6841-35.02013,63.83354-38.9964,100.95642-2.52793,23.60275-2.42968,47.12248,5.28927,69.8705,10.54938,31.08947,30.11438,53.2195,63.78943,59.20118,26.74776,4.75144,51.66821-1.46767,75.33608-14.51895,13.52108-7.4561,21.79682-15.39907,22.61218-33.35664,2.784-61.31345,25.07548-117.918,46.97291-174.38562,5.17516-13.34522,10.82754-26.50532,16.04171-39.83582,1.52167-3.89014,3.3735-6.02124,7.99128-6.70143,34.44361-5.07472,68.82988-10.53639,103.32535-15.89092.76755,2.92066-.79964,4.88323-1.54314,6.97062-19.85329,55.74109-41.34659,110.92052-57.73533,167.84843-7.514,26.1006-14.60444,52.3108-16.69839,79.56445-.83309,10.8414.25068,21.40463,4.6803,31.40291,8.431,19.03087,24.83377,26.40411,44.77428,20.32031,14.21973-4.33816,25.02845-13.63323,34.98991-24.13362,11.1156-11.717,19.38218-23.67981,20.17849-41.61633,1.98827-44.79014,14.72074-87.47084,30.72645-129.20571,10.63364-27.72663,20.75446-55.65017,30.994-83.52632,1.12315-3.05752,2.49066-4.90639,6.031-5.43,35.12358-5.19435,70.22218-10.55731,105.331-15.85023a14.74694,14.74694,0,0,1,2.63229.22121c-4.44456,12.42837-8.89469,24.55118-13.12251,36.751-16.9967,49.04486-36.46847,97.23671-51.20512,147.05509-7.47514,25.27112-13.47195,50.9023-12.38115,77.57651a71.2646,71.2646,0,0,0,1.73918,13.335c6.53619,27.791,28.6479,39.46917,56.52318,30.11812,11.41924-3.83068,20.85768-10.74342,29.66806-18.64789,12.78784-11.47306,23.9568-24.44851,35.01885-37.55147,2.95256-3.49727,1.72733-6.02051.19414-9.14929-33.71935-68.81142-14.677-161.97293,37.2573-213.07423,12.67491-12.47184,27.35313-21.40317,45.53679-22.73681,19.92474-1.46138,29.94987,7.26178,31.996,27.22038,2.23509,21.80133-1.13709,43.14831-5.9382,64.25913-11.77406,51.77344-35.49689,98.30363-63.8628,142.66184-3.17449,4.9644-2.5272,7.33182,1.81884,10.61327,10.81205,8.16263,22.35059,14.2345,36.19031,14.90535,2.47943.12,4.46953.40057,4.24933-3.4795-2.68888-47.39554,9.40426-91.14488,33.78861-131.50578,22.4318-37.12884,51.1188-68.618,87.70485-92.34372,28.79455-18.67291,60.31981-28.21812,94.88213-25.94462,24.9837,1.64335,46.65228,10.48394,62.468,30.78374,12.13535,15.57565,15.509,33.511,13.20081,52.726a19.84975,19.84975,0,0,1-8.69071,14.42133,52.27234,52.27234,0,0,1-8.23117,4.94758c-19.3387,8.57085-38.61879,17.29592-58.17441,25.34786-10.845,4.46543-14.86534.78993-13.07457-10.86865,1.75294-11.413,3.7485-22.78894,5.45588-34.20841a56.56655,56.56655,0,0,0-2.61187-28.46129c-5.8436-15.73415-17.83412-22.03948-34.13213-18.08809-14.74612,3.5753-25.30543,13.18285-34.31568,24.58067-22.34732,28.26848-34.3928,60.83559-38.81867,96.33158-3.03787,24.36543-3.63841,48.76632,3.86125,72.5216,10.67807,33.82274,31.5331,57.26518,68.2771,62.2962,25.64785,3.51181,49.79468-2.26025,72.05687-15.48625,23.347-13.87047,43.62315-31.63733,63.11916-50.34063,2.286-2.19307,3.83792-5.15123,5.72995-7.75476q.5891.85425,1.1782,1.70865" transform="translate(-71.30606 -219.43548)"/><path class="cls-7" d="M1097.66866,626.5768c2.64678-22.43107.94952-44.69654-2.54871-66.89337-.59151-.92565-1.36668-4.38806-1.02289-7.99447-2.27-25.66855-9.50151-49.94608-20.51517-73.16334,32.12508-38.121,71.81279-64.32189,120.691-75.4996,57.74331-13.20508,113.38141-5.41988,166.04335,20.51016,82.20458,40.47609,133.58213,105.59365,150.85226,196.149,8.19289,42.95845,2.83426,85.33268-6.05915,127.91344-18.4877,88.51856-63.87683,163.29613-116.07084,234.88425-24.61239,33.758-51.52758,65.66824-79.35538,96.81071-.7017.7851-1.55133,1.43823-2.332,2.153q-.66156-.69492-1.32339-1.38983c2.05381-3.48593,4.12347-6.96247,6.15923-10.45878,24.29967-41.73842,35.33876-86.59237,28.13422-134.5652-8.86351-59.01831-38.7927-105.786-88.13832-139.27453-42.62706-28.9289-89.38552-39.19655-140.19507-26.55108-18.6205,4.63423-35.4083,13.34335-51.74787,23.07363,6.57484-21.79071,14.37818-43.19907,19.991-65.29255,6.55332-25.79542,12.918-51.61143,15.11816-78.24344-1.97487-5.21773-1.25138-6.18238,1.05352-6.82375q.11867-2.40369.23706-4.8094c-.76769-4.08674-.21637-8.15206,1.02891-10.5348" transform="translate(-71.30606 -219.43548)"/><path class="cls-8" d="M1060.24,792.28065c16.33957-9.73019,33.12737-18.43931,51.74787-23.07354,50.80946-12.64547,97.56792-2.37782,140.19507,26.55108,49.34562,33.48856,79.27481,80.25622,88.13832,139.27444,7.20454,47.97292-3.83455,92.82687-28.13431,134.56529-2.03567,3.49631-4.10533,6.973-6.15941,10.45932-1.4406,1.54569-3.14159,2.97161-2.50286,5.46837-6.16351,6.7985-10.234,15.05582-15.64324,22.3917-28.759,39.00369-64.793,70.39552-103.41025,99.09337-6.693,4.97392-13.8007,9.41361-20.28485,14.63652-4.286,3.45248-7.56965,3.03418-11.84414.10846a268.48994,268.48994,0,0,1-29.45451-22.70527c-20.21385-18.41807-42.9467-20.09108-67.54587-11.41988-19.02025,6.70467-35.46308,17.74913-50.90553,30.46346-1.72541,1.42045-3.01709,3.81809-6.486,3.1312,5.5051-16.282,10.98376-32.48587,16.9052-49.999-72.40832,18.22134-143.86264,36.20247-216.6317,54.51473,3.35873-9.44592,3.0905-18.88217,8.04838-26.96842a70.30067,70.30067,0,0,0,9.07018-15.43767c12.79266-19.49327,23.40074-40.22518,34.45459-60.70534,22.67068-42.0031,39.817-86.51845,59.3331-129.9605,21.27083-47.34742,46.64016-92.37025,79.233-133.03137,19.66088-24.528,41.75765-46.47828,67.91471-64.13458,1.40533-.94861,2.64532-2.14249,3.96224-3.22234" transform="translate(-71.30606 -219.43548)"/><path class="cls-9" d="M1095.13326,559.77548c-.46055-3.506-1.07056-8.47379-1.07056-8.47379l-.00483-.00392c-2.30882-25.52362-9.51856-49.67328-20.476-72.77206-3.59119-6.30779-6.93822-12.77034-10.8125-18.89967C1019.49084,391.15453,936.79382,354.23163,856.65,368.63852c-64.65911,11.62358-110.10142,47.67225-133.447,109.80316-10.4632,27.84593-15.27547,56.91537-16.692,86.57249,26.67066,56.15488,45.5026,114.99636,60.23884,175.25931,11.67781,47.75519,20.58853,96.03864,27.5407,144.67736,5.05271,35.34888,8.9897,70.83511,12.0782,106.42442,2.38734,27.50734,4.34563,55.04148,5.71768,82.603,1.13828,22.85762,2.40717,45.73912,1.85876,68.65434,1.70783,10.98085.60391,22.05037,1.04687,33.071.10226,2.54433-1.82167,9.53154-1.70446,12.07514,12.79276-19.49305,25.45555-44.669,36.5094-65.14913,22.67059-42.0031,39.817-86.51845,59.3331-129.9605,21.27083-47.3476,46.64016-92.37025,79.233-133.03146,19.66088-24.52808,41.75765-46.4781,67.91471-64.13449,1.40533-.94879,2.64532-2.14267,3.96206-3.22225,6.575-21.79071,14.37854-43.19925,19.99119-65.29246,6.23405-24.53738,12.29685-49.09325,14.7669-74.35q.19-1.94256.35126-3.89069c.14556-.66971.68767-4.69137.93667-6.23a13.39573,13.39573,0,0,0,.16051-1.47988l.14017-2.83945c.52189-5.196,1.0074-10.53078,1.082-11.62158,2.64313-22.4.95335-44.63483-2.53531-66.80132" transform="translate(-71.30606 -219.43548)"/><circle class="cls-10" cx="1672.04878" cy="155.46774" r="150.96774"/><path class="cls-4" d="M1803.06183,404.97816l26.38811,6.665q-8.29864,32.51111-29.85665,49.57973-21.56073,17.072-52.70822,17.07066-32.237,0-52.43617-13.12605-20.19915-13.12468-30.7408-38.01793a135.63259,135.63259,0,0,1-10.54164-53.45633q0-31.14681,11.90186-54.34047,11.90049-23.18958,33.86928-35.22949a98.95031,98.95031,0,0,1,48.35554-12.03788q29.92194,0,50.32784,15.23438,20.40318,15.23573,28.42843,42.84667l-25.98005,6.121q-6.93708-21.76135-20.13114-31.69294-13.19541-9.92751-33.18917-9.92955-22.98894,0-38.426,11.01772a58.16716,58.16716,0,0,0-21.69538,29.58461,119.08644,119.08644,0,0,0-6.257,38.29q0,25.43733,7.41316,44.41092,7.41179,18.975,23.05559,28.36042a64.651,64.651,0,0,0,33.86928,9.38547q22.16874,0,37.54186-12.786Q1797.61962,430.14413,1803.06183,404.97816Z" transform="translate(-71.30606 -219.43548)"/></svg>